<svg id="Слой_1" data-name="Слой 1" xmlns="http://www.w3.org/2000/svg" viewBox="0 0 60.16 38.08"><defs><style>.cls-1{fill:#333}</style></defs><path class="cls-1" d="M45.63 20.72l1.28 3a1.13 1.13 0 001.46.58A1 1 0 0049 23a.58.58 0 00-.05-.14l-1.28-2.95zm.86 1.97l2-.81zm-3.55-8.19l2.91 1.12zm1.58-5.98a3 3 0 01-5.94 0 3 3 0 015.94 0z" transform="translate(-5.1)"/><path class="cls-1" d="M43 8.52A1.5 1.5 0 1141.5 7 1.5 1.5 0 0143 8.52zm-3.53 2.02l-4.06 9.37-1 4.2.69.28 2.39-3.67.51-1.31a2 2 0 011.1-2.61l2.36-5.44a3 3 0 01-1.99-.82zm4.16 0a3 3 0 01-2.05.81l3.49 8.06 2-.81zm-.96-6.28V1.07a1.12 1.12 0 00-2.23 0v3.19zm-1.12 1.42a3.43 3.43 0 01.56.05V4.26H41v1.47a3.41 3.41 0 01.55-.05zM26.1 25.56h-3.71V0h3.71a1.46 1.46 0 011.48 1.42v22.72a1.45 1.45 0 01-1.48 1.42z" transform="translate(-5.1)"/><path class="cls-1" d="M25.91 2.13a.55.55 0 00.56-.51.54.54 0 00-.55-.53.53.53 0 00-.55.51.54.54 0 00.54.53zm4.26 12.96a.56.56 0 001.11 0 .56.56 0 001.11 0 .56.56 0 01-1.11 0 .56.56 0 01-1.11 0z" transform="translate(-5.1)"/><path class="cls-1" d="M30.91 0a.73.73 0 00-.74.71v14.91l1.11 4.26 1.11-4.26V.71a.73.73 0 00-.74-.71zM7.1 38h-2v-8.38h2a2 2 0 011.39.5 2 2 0 01.6 1.5v4.32a2.62 2.62 0 01-.14.88 1.67 1.67 0 01-.47.67A2 2 0 017.1 38zm-.67-1.32h.67a.74.74 0 00.5-.13.7.7 0 00.17-.55v-4.38a.81.81 0 00-.18-.6.78.78 0 00-.49-.14h-.67zM11.26 38H9.94v-8.38h1.32zm2.85.08a2 2 0 01-1.39-.46 2.14 2.14 0 01-.6-1.57v-4.49a2.1 2.1 0 01.6-1.57 2 2 0 011.39-.5 2 2 0 011.39.5 2.08 2.08 0 01.6 1.57v.74h-1.32v-.74a.82.82 0 00-.17-.6.69.69 0 00-.5-.15.67.67 0 00-.49.15.81.81 0 00-.18.6V36a.81.81 0 00.18.6.66.66 0 00.49.14.69.69 0 00.5-.14.82.82 0 00.17-.6v-1.55h-.66v-1.32h2V36a2 2 0 01-.62 1.6 2 2 0 01-1.39.48zm4.17-.08H17v-8.38h1.32zm4.61-7.09h-1.34V38h-1.32v-7.09h-1.35v-1.29h4zm2.88 5.71h-1.51L24 38h-1.32l1.68-8.37h1.32L27.36 38H26zm-.23-1.32l-.52-3-.53 3zm5.94 2.7H28v-8.38h1.32v7.08h2.16zm3.82 0H34v-8.38h2a1.9 1.9 0 012 2v1a1.79 1.79 0 01-2 2h-.7zm0-4.68h.7a.78.78 0 00.49-.14.81.81 0 00.18-.6v-.95a.81.81 0 00-.18-.6.78.78 0 00-.49-.14h-.7zM42.63 38h-1.34l-.69-3.37H40V38h-1.32v-8.38h2a1.89 1.89 0 012 2.06v.9a2 2 0 01-.6 1.57l-.19.16zm-1.28-6.37a.81.81 0 00-.18-.6.78.78 0 00-.49-.14H40v2.39h.68a.72.72 0 00.49-.15.81.81 0 00.18-.6zm3.98 6.45a2 2 0 01-1.39-.46 2.08 2.08 0 01-.6-1.57v-4.49a2.08 2.08 0 01.6-1.57 2.17 2.17 0 012.78 0 2.08 2.08 0 01.6 1.57V36a2.08 2.08 0 01-.6 1.57 1.92 1.92 0 01-1.39.51zm0-7.27a.67.67 0 00-.49.15.81.81 0 00-.18.6V36a.81.81 0 00.18.6.93.93 0 001 0A.77.77 0 0046 36v-4.44a.77.77 0 00-.18-.6.67.67 0 00-.49-.15zm4.54 7.27a2 2 0 01-1.39-.46 2.08 2.08 0 01-.6-1.57v-1h1.32v1a.81.81 0 00.16.6.72.72 0 00.51.14.66.66 0 00.49-.14.81.81 0 00.18-.6v-6.43h1.32V36a2.14 2.14 0 01-.6 1.57 2 2 0 01-1.39.51zm4.21-7.17V33h1.49v1.32h-1.49v2.33h2.16V38h-3.48v-8.38h3.48v1.32zm4.74 7.17a2 2 0 01-1.39-.46 2.14 2.14 0 01-.6-1.57v-4.49a2.1 2.1 0 01.6-1.57 2.18 2.18 0 012.78 0 2.08 2.08 0 01.6 1.57v.74h-1.32v-.74a.82.82 0 00-.17-.6.69.69 0 00-.5-.15.67.67 0 00-.49.15.81.81 0 00-.18.6V36a.81.81 0 00.18.6.66.66 0 00.49.14.69.69 0 00.5-.14.82.82 0 00.17-.6v-1.06h1.32V36a2.08 2.08 0 01-.6 1.57 1.92 1.92 0 01-1.39.51zm6.44-7.17h-1.34V38H62.6v-7.09h-1.34v-1.29h4z" transform="translate(-5.1)"/></svg>