<svg id="Слой_1" data-name="Слой 1" xmlns="http://www.w3.org/2000/svg" viewBox="0 0 68.55 43.48"><defs><style>.cls-1{fill:#fff}</style></defs><path class="cls-1" d="M45.63 21.1l1.28 2.95a1.13 1.13 0 001.46.58 1 1 0 00.6-1.39l-1.28-2.95zm.86 1.97l2-.81zm-3.55-8.19L45.85 16zm1.58-5.98a3 3 0 01-5.94 0 3 3 0 015.94 0z" transform="translate(0 -.38)"/><path class="cls-1" d="M43 8.9a1.49 1.49 0 01-3 0 1.49 1.49 0 013 0zm-3.53 2.02l-4.06 9.37-1 4.2.69.28 2.39-3.67.51-1.31a2 2 0 011.13-2.62l2.36-5.44a3 3 0 01-2.02-.81zm4.16 0a3 3 0 01-2.05.81l3.49 8.06 2-.81zm-.96-6.28V1.45a1.12 1.12 0 00-2.23 0v3.19zm-1.12 1.42a3.43 3.43 0 01.56.05V4.64H41v1.47a3.31 3.31 0 01.55-.05zM26.1 25.94h-3.71V.38h3.71a1.46 1.46 0 011.48 1.42v22.72a1.45 1.45 0 01-1.48 1.42z" transform="translate(0 -.38)"/><path class="cls-1" d="M25.91 2.51a.55.55 0 00.56-.51.54.54 0 00-.56-.53.53.53 0 00-.55.53.54.54 0 00.55.51zm4.26 12.96a.56.56 0 001.11 0 .56.56 0 001.11 0 .56.56 0 01-1.11 0 .56.56 0 01-1.11 0z" transform="translate(0 -.38)"/><path class="cls-1" d="M30.91.38a.73.73 0 00-.74.71V16l1.11 4.26L32.39 16V1.09a.73.73 0 00-.74-.71z" transform="translate(0 -.38)"/><path d="M68.55 31.4H0v12.46h68.55z" transform="translate(0 -.38)" fill="none"/><path class="cls-1" d="M7.1 38.37h-2V30h2a2 2 0 011.39.5 2 2 0 01.6 1.5v4.32a2.66 2.66 0 01-.14.88 1.8 1.8 0 01-.47.67 2 2 0 01-1.38.5zm-.67-1.32h.67a.77.77 0 00.5-.13.72.72 0 00.17-.57V32a.83.83 0 00-.18-.6.73.73 0 00-.49-.14h-.67zm4.83 1.32H9.94V30h1.32zm2.85.09a2 2 0 01-1.39-.46 2.12 2.12 0 01-.6-1.57v-4.49a2.1 2.1 0 01.6-1.57 2 2 0 011.39-.5 2 2 0 011.39.5 2.06 2.06 0 01.6 1.57v.74h-1.32v-.74a.81.81 0 00-.17-.6.7.7 0 00-.5-.15.67.67 0 00-.49.15.8.8 0 00-.18.6v4.46a.8.8 0 00.18.6.67.67 0 00.49.14.7.7 0 00.5-.14.81.81 0 00.17-.6v-1.57h-.66v-1.32h2v2.89a2.06 2.06 0 01-.62 1.6 2 2 0 01-1.39.46zm4.17-.09H17V30h1.32zm4.61-7.08h-1.34v7.08h-1.32v-7.08h-1.35V30h4zM25.77 37h-1.51L24 38.37h-1.32L24.36 30h1.32l1.68 8.4H26zm-.23-1.32l-.52-3-.53 3zm5.94 2.69H28V30h1.32v7.08h2.16zm3.82 0H34V30h2a2 2 0 011.39.5A2 2 0 0138 32v1a2 2 0 01-.6 1.57A2 2 0 0136 35h-.7zm0-4.68h.7a.72.72 0 00.49-.14.83.83 0 00.18-.6V32a.83.83 0 00-.18-.6.72.72 0 00-.49-.14h-.7zm7.33 4.68h-1.34L40.6 35H40v3.37h-1.32V30h2a2 2 0 011.39.5 2 2 0 01.6 1.56v.9a2 2 0 01-.6 1.57l-.19.16zM41.35 32a.83.83 0 00-.18-.6.75.75 0 00-.49-.14H40v2.39h.68a.7.7 0 00.49-.15.8.8 0 00.18-.6zm3.98 6.46a2 2 0 01-1.39-.46 2.06 2.06 0 01-.6-1.57v-4.49a2.06 2.06 0 01.6-1.57 2.18 2.18 0 012.78 0 2.06 2.06 0 01.6 1.57v4.46a2.06 2.06 0 01-.6 1.57 1.94 1.94 0 01-1.39.49zm0-7.27a.68.68 0 00-.49.15.8.8 0 00-.18.6v4.46a.8.8 0 00.18.6.68.68 0 00.49.14.65.65 0 00.49-.14.77.77 0 00.18-.6v-4.46a.77.77 0 00-.18-.6.65.65 0 00-.49-.15zm4.54 7.27a1.94 1.94 0 01-1.39-.46 2.06 2.06 0 01-.6-1.57v-1h1.32v1a.81.81 0 00.16.6.74.74 0 00.51.14.68.68 0 00.49-.14.8.8 0 00.18-.6V30h1.32v6.4a2.12 2.12 0 01-.6 1.57 2 2 0 01-1.39.49zm4.21-7.17v2.11h1.49v1.32h-1.49v2.33h2.16v1.32h-3.48V30h3.48v1.32zm4.74 7.17a2 2 0 01-1.39-.46 2.12 2.12 0 01-.6-1.57v-4.49a2.1 2.1 0 01.6-1.57 2 2 0 011.39-.5 1.94 1.94 0 011.39.5 2.06 2.06 0 01.6 1.57v.74h-1.32v-.74a.81.81 0 00-.17-.6.7.7 0 00-.5-.15.67.67 0 00-.49.15.8.8 0 00-.18.6v4.46a.8.8 0 00.18.6.67.67 0 00.49.14.7.7 0 00.5-.14.81.81 0 00.17-.6v-1.08h1.32v1.08a2.06 2.06 0 01-.6 1.57 1.94 1.94 0 01-1.39.49zm6.44-7.17h-1.34v7.08H62.6v-7.08h-1.34V30h4z" transform="translate(0 -.38)"/></svg>